# xmcd
#
# Track frame offsets:
#  150
#  21229
#  36850
#  54630
#  77433
#  92943
#  107494
#  124034
#  138847
#  156892
#  168985
#  183401
#  200433
#
# Disc length: 2876 seconds
#
# Revision: 1
# Processed by: cddbd v1.5.1PL2 Copyright (c) Steve Scherf et al.
# Submitted via: Collectorz.com_Music_Collector 6.9
#
DISCID=a40b3a0d
DTITLE=Southern Mystique - Filly Gumbo
DYEAR=2002
DGENRE=Country
TTITLE0=Woman of the Black Bayou
TTITLE1=Black Water
TTITLE2=Andy's Cafe
TTITLE3=Home of the Blues/Blues Stay Away From Me
TTITLE4=Muddy Water
TTITLE5=January
TTITLE6=Walking after Midnight
TTITLE7=Don't you tell your Momma
TTITLE8=Lonesome Highway Blues
TTITLE9=Oh Montonya
TTITLE10=Laredo Rope
TTITLE11=Will the Circle be Unbroken
TTITLE12=House of Grace
EXTD=
EXTT0=
EXTT1=
EXTT2=
EXTT3=
EXTT4=
EXTT5=
EXTT6=
EXTT7=
EXTT8=
EXTT9=
EXTT10=
EXTT11=
EXTT12=
PLAYORDER=
